<svg version="1.1" xmlns="http://www.w3.org/2000/svg" viewBox="0 0 1098.1944444444443 631.5" width="3294.583333333333" height="1894.5">
  <!-- svg-source:excalidraw -->
  
  <defs>
    <style class="style-fonts">
      @font-face {
        font-family: "Virgil";
        src: url("https://excalidraw.com/Virgil.woff2");
      }
      @font-face {
        font-family: "Cascadia";
        src: url("https://excalidraw.com/Cascadia.woff2");
      }
    </style>
    
  </defs>
  <rect x="0" y="0" width="1098.1944444444443" height="631.5" fill="#ffffff"></rect><g stroke-linecap="round" transform="translate(32 293) rotate(0 70 17.5)"><path d="M8.75 0 M8.75 0 C51.46 2.65, 92.66 0.64, 131.25 0 M8.75 0 C56.53 0.86, 102.48 0.79, 131.25 0 M131.25 0 C136.58 -0.01, 138.4 3.76, 140 8.75 M131.25 0 C134.91 -0.84, 140.18 2.08, 140 8.75 M140 8.75 C140.8 14.06, 140.99 20.5, 140 26.25 M140 8.75 C140.55 13.6, 139.12 16.12, 140 26.25 M140 26.25 C140.32 32.34, 137.31 35.3, 131.25 35 M140 26.25 C140.27 32.02, 138.56 35.82, 131.25 35 M131.25 35 C96.04 33.26, 63.73 33.82, 8.75 35 M131.25 35 C95.6 35.28, 58.34 34.9, 8.75 35 M8.75 35 C3.49 36.62, 0.39 32.96, 0 26.25 M8.75 35 C1.12 35.7, 1.99 33.32, 0 26.25 M0 26.25 C-0.43 20.15, -1.51 15.74, 0 8.75 M0 26.25 C0.65 19.81, -0.28 13.28, 0 8.75 M0 8.75 C-0.39 1.47, 3.12 0.98, 8.75 0 M0 8.75 C-2.1 4.46, 4.53 -0.11, 8.75 0" stroke="#1e1e1e" stroke-width="1" fill="none"></path></g><g transform="translate(46.266666412353516 298) rotate(0 55.733333587646484 12.5)"><text x="55.733333587646484" y="0" font-family="Virgil, Segoe UI Emoji" font-size="20px" fill="#1e1e1e" text-anchor="middle" style="white-space: pre;" direction="ltr" dominant-baseline="text-before-edge">Contact us</text></g><g stroke-linecap="round" transform="translate(10 144.5) rotate(0 91 172.5)"><path d="M0 0 C44.88 0, 89.76 0, 182 0 M0 0 C67.53 0, 135.06 0, 182 0 M182 0 C182 116.19, 182 232.38, 182 345 M182 0 C182 117.07, 182 234.14, 182 345 M182 345 C121.93 345, 61.85 345, 0 345 M182 345 C138.85 345, 95.7 345, 0 345 M0 345 C0 236.85, 0 128.69, 0 0 M0 345 C0 273.87, 0 202.73, 0 0" stroke="#1e1e1e" stroke-width="2" fill="none"></path></g><g stroke-linecap="round" transform="translate(18.36842105263156 161.5) rotate(0 82.4473684210526 151.25)"><path d="M0 0 C58.59 0, 117.18 0, 164.89 0 M0 0 C50.88 0, 101.76 0, 164.89 0 M164.89 0 C164.89 109.44, 164.89 218.87, 164.89 302.5 M164.89 0 C164.89 110.66, 164.89 221.32, 164.89 302.5 M164.89 302.5 C110.01 302.5, 55.13 302.5, 0 302.5 M164.89 302.5 C115.98 302.5, 67.07 302.5, 0 302.5 M0 302.5 C0 203.77, 0 105.04, 0 0 M0 302.5 C0 228.23, 0 153.96, 0 0" stroke="#1e1e1e" stroke-width="1" fill="none"></path></g><g stroke-linecap="round" transform="translate(71 472) rotate(0 29.5 5)"><path d="M2.5 0 L56.5 0 L58.38 0.63 L59 7.5 L58.38 9.38 L56.5 10 L2.5 10 L0.62 9.38 L0 7.5 L0 2.5 L0.63 0.62 L2.5 0" stroke="none" stroke-width="0" fill="#000000"></path><path d="M2.5 0 M2.5 0 C16.49 0, 30.48 0, 56.5 0 M2.5 0 C22.25 0, 42.01 0, 56.5 0 M56.5 0 C58.17 0, 59 0.83, 59 2.5 M56.5 0 C58.17 0, 59 0.83, 59 2.5 M59 2.5 C59 4.29, 59 6.08, 59 7.5 M59 2.5 C59 3.98, 59 5.47, 59 7.5 M59 7.5 C59 9.17, 58.17 10, 56.5 10 M59 7.5 C59 9.17, 58.17 10, 56.5 10 M56.5 10 C37.6 10, 18.7 10, 2.5 10 M56.5 10 C43.24 10, 29.98 10, 2.5 10 M2.5 10 C0.83 10, 0 9.17, 0 7.5 M2.5 10 C0.83 10, 0 9.17, 0 7.5 M0 7.5 C0 5.79, 0 4.09, 0 2.5 M0 7.5 C0 6.41, 0 5.33, 0 2.5 M0 2.5 C0 0.83, 0.83 0, 2.5 0 M0 2.5 C0 0.83, 0.83 0, 2.5 0" stroke="#1e1e1e" stroke-width="1" fill="none"></path></g><g stroke-linecap="round" transform="translate(69.58640552995439 151.1675540244284) rotate(0 28.75 2.25)"><path d="M1.13 0 L56.38 0 L57.22 0.28 L57.5 3.38 L56.38 4.5 L1.13 4.5 L0 3.38 L0 1.13 L1.13 0" stroke="none" stroke-width="0" fill="#000000"></path><path d="M1.13 0 M1.13 0 C21.11 0, 41.1 0, 56.38 0 M1.13 0 C12.7 0, 24.27 0, 56.38 0 M56.38 0 C57.13 0, 57.5 0.38, 57.5 1.13 M56.38 0 C57.13 0, 57.5 0.38, 57.5 1.13 M57.5 1.13 C57.5 1.87, 57.5 2.62, 57.5 3.38 M57.5 1.13 C57.5 1.86, 57.5 2.6, 57.5 3.38 M57.5 3.38 C57.5 4.13, 57.13 4.5, 56.38 4.5 M57.5 3.38 C57.5 4.13, 57.13 4.5, 56.38 4.5 M56.38 4.5 C38.34 4.5, 20.31 4.5, 1.13 4.5 M56.38 4.5 C36.58 4.5, 16.79 4.5, 1.13 4.5 M1.13 4.5 C0.38 4.5, 0 4.13, 0 3.38 M1.13 4.5 C0.38 4.5, 0 4.13, 0 3.38 M0 3.38 C0 2.59, 0 1.81, 0 1.13 M0 3.38 C0 2.76, 0 2.14, 0 1.13 M0 1.13 C0 0.38, 0.38 0, 1.13 0 M0 1.13 C0 0.38, 0.38 0, 1.13 0" stroke="#1e1e1e" stroke-width="1" fill="none"></path></g><g stroke-linecap="round" transform="translate(28 288) rotate(0 74 23)"><path d="M11.5 0 M11.5 0 C49.65 -0.07, 88.86 -2.55, 136.5 0 M11.5 0 C37.79 0.24, 66 -1.06, 136.5 0 M136.5 0 C143.91 -0.19, 147.72 4.54, 148 11.5 M136.5 0 C141.98 2.24, 149.94 5.26, 148 11.5 M148 11.5 C145.98 18.01, 146.09 26.48, 148 34.5 M148 11.5 C147.51 18.58, 148.54 27.18, 148 34.5 M148 34.5 C146.85 42.67, 145.2 44.11, 136.5 46 M148 34.5 C149.19 43.15, 142.09 47.44, 136.5 46 M136.5 46 C107.44 45.56, 79.78 46.84, 11.5 46 M136.5 46 C101.89 46.24, 66.18 47.65, 11.5 46 M11.5 46 C2.74 47.49, -1.51 41.98, 0 34.5 M11.5 46 C6.02 47.44, 2.25 41.23, 0 34.5 M0 34.5 C-0.66 27.91, -0.78 21.3, 0 11.5 M0 34.5 C-0.08 30.45, -0.35 25.93, 0 11.5 M0 11.5 C0.45 4.19, 2.56 -0.13, 11.5 0 M0 11.5 C2.02 1.95, 2.42 -2.16, 11.5 0" stroke="#1971c2" stroke-width="2" fill="none"></path></g><g stroke-linecap="round"><g transform="translate(177 298.36377675941816) rotate(0 62.288911486044526 -115.85773625965118)"><path d="M0.05 -0.33 C21.24 -38.53, 105.29 -191.23, 125.96 -229.56 M-1.39 -1.55 C19.84 -40.07, 104.21 -193.47, 125.52 -231.38" stroke="#1971c2" stroke-width="2" fill="none"></path></g><g transform="translate(177 298.36377675941816) rotate(0 62.288911486044526 -115.85773625965118)"><path d="M120.25 -200.15 C122.8 -209.24, 122.54 -213.34, 124.51 -230.36 M121.1 -201.2 C121.9 -213.11, 124.39 -223.84, 124.73 -230.98" stroke="#1971c2" stroke-width="2" fill="none"></path></g><g transform="translate(177 298.36377675941816) rotate(0 62.288911486044526 -115.85773625965118)"><path d="M102.31 -210.11 C108.42 -217.21, 111.76 -219.32, 124.51 -230.36 M103.16 -211.16 C110.75 -219.36, 120.08 -226.29, 124.73 -230.98" stroke="#1971c2" stroke-width="2" fill="none"></path></g></g><mask></mask><g stroke-linecap="round" transform="translate(303 10) rotate(0 131.5 36.5)"><path d="M18.25 0 M18.25 0 C74.63 0.4, 131.16 -1.38, 244.75 0 M18.25 0 C68.65 0.83, 118.84 -0.4, 244.75 0 M244.75 0 C256.63 -0.23, 264.54 6.79, 263 18.25 M244.75 0 C255.17 0.18, 263.85 4.23, 263 18.25 M263 18.25 C261.77 34.04, 262.88 47.01, 263 54.75 M263 18.25 C262.77 30, 262.58 41.89, 263 54.75 M263 54.75 C264.39 66.6, 256.43 73.16, 244.75 73 M263 54.75 C262.29 68.5, 257.98 73.27, 244.75 73 M244.75 73 C173.52 70.43, 103.93 72.73, 18.25 73 M244.75 73 C194.03 72, 141.76 72.42, 18.25 73 M18.25 73 C5.75 74.43, -0.07 65.93, 0 54.75 M18.25 73 C4.05 71.5, -0.97 64.67, 0 54.75 M0 54.75 C0.46 48.65, 0.93 39.51, 0 18.25 M0 54.75 C-0.5 45.85, -1.13 36.11, 0 18.25 M0 18.25 C-1.28 6.44, 6.85 0.4, 18.25 0 M0 18.25 C1.28 8.06, 8.31 0.72, 18.25 0" stroke="#1971c2" stroke-width="2" fill="none"></path></g><g transform="translate(355.93333435058594 34) rotate(0 78.56666564941406 12.5)"><text x="78.56666564941406" y="0" font-family="Virgil, Segoe UI Emoji" font-size="20px" fill="#1971c2" text-anchor="middle" style="white-space: pre;" direction="ltr" dominant-baseline="text-before-edge">Reads the label</text></g><g stroke-linecap="round"><g transform="translate(431.6040072452713 85) rotate(0 1.1654463179549452 30.03600668778644)"><path d="M0.91 -0.35 C1.4 9.76, 2 50.16, 2.4 60.07 M-0.07 -1.57 C0.3 8.79, 0.85 51.39, 1.36 61.65" stroke="#1971c2" stroke-width="2" fill="none"></path></g><g transform="translate(431.6040072452713 85) rotate(0 1.1654463179549452 30.03600668778644)"><path d="M-10.28 33.45 C-6.9 42.01, -5.67 49.05, -0.47 60.18 M-8.76 34.67 C-6.79 43.91, -1.87 52.81, 1.91 61.56" stroke="#1971c2" stroke-width="2" fill="none"></path></g><g transform="translate(431.6040072452713 85) rotate(0 1.1654463179549452 30.03600668778644)"><path d="M10.23 32.87 C8.4 41.73, 4.43 48.92, -0.47 60.18 M11.75 34.09 C6.51 43.34, 4.24 52.44, 1.91 61.56" stroke="#1971c2" stroke-width="2" fill="none"></path></g></g><mask></mask><g stroke-linecap="round" transform="translate(304.5 150.5) rotate(0 131.5 36.5)"><path d="M18.25 0 M18.25 0 C78.18 2.31, 136.33 1.84, 244.75 0 M18.25 0 C85.57 -1.36, 150.92 -2.27, 244.75 0 M244.75 0 C256.66 -0.29, 263.09 5.93, 263 18.25 M244.75 0 C255.38 0.21, 261.72 6.08, 263 18.25 M263 18.25 C260.89 29.44, 263.9 35.97, 263 54.75 M263 18.25 C263.63 29.25, 264.08 40.17, 263 54.75 M263 54.75 C261.43 67.5, 257.99 73.17, 244.75 73 M263 54.75 C263.46 65.8, 258.72 72.83, 244.75 73 M244.75 73 C167.36 74.09, 87.38 72.39, 18.25 73 M244.75 73 C160.24 72.31, 76.19 71.6, 18.25 73 M18.25 73 C4.9 72.71, 1.57 67.24, 0 54.75 M18.25 73 C4.88 74.72, 2.23 64.94, 0 54.75 M0 54.75 C-0.45 45.82, -1.24 35.63, 0 18.25 M0 54.75 C0.93 40.22, 0.04 26.29, 0 18.25 M0 18.25 C-0.5 5.33, 6.17 0.44, 18.25 0 M0 18.25 C-0.64 3.81, 6.54 -1.9, 18.25 0" stroke="#1971c2" stroke-width="2" fill="none"></path></g><g transform="translate(361.9833297729492 174.5) rotate(0 74.01667022705078 12.5)"><text x="74.01667022705078" y="0" font-family="Virgil, Segoe UI Emoji" font-size="20px" fill="#1971c2" text-anchor="middle" style="white-space: pre;" direction="ltr" dominant-baseline="text-before-edge">Reads the role</text></g><g stroke-linecap="round"><g transform="translate(433 224) rotate(0 0.5424434795230582 27.15089349769056)"><path d="M0.28 0.63 C0.32 9.78, -0.15 45.4, -0.04 54.38 M-1.03 -0.08 C-0.6 8.74, 1.94 43.7, 2.12 52.46" stroke="#1971c2" stroke-width="2" fill="none"></path></g><g transform="translate(433 224) rotate(0 0.5424434795230582 27.15089349769056)"><path d="M-7.32 25.83 C-4.97 34.17, -1.84 40.77, 0.39 50.53 M-8.55 28.44 C-6.05 33.91, -3.72 40.98, 1.13 52.4" stroke="#1971c2" stroke-width="2" fill="none"></path></g><g transform="translate(433 224) rotate(0 0.5424434795230582 27.15089349769056)"><path d="M11.13 24.91 C8.42 33.54, 6.5 40.39, 0.39 50.53 M9.9 27.51 C7.52 33.14, 4.99 40.45, 1.13 52.4" stroke="#1971c2" stroke-width="2" fill="none"></path></g></g><mask></mask><g stroke-linecap="round" transform="translate(304.25 287) rotate(0 131.5 36.5)"><path d="M18.25 0 M18.25 0 C86.68 -2.34, 153.63 -1.9, 244.75 0 M18.25 0 C107.67 0.54, 197.95 -0.52, 244.75 0 M244.75 0 C256.64 0.36, 261.59 6.27, 263 18.25 M244.75 0 C255.97 -0.24, 261.1 7.33, 263 18.25 M263 18.25 C262.4 29.55, 264.21 45.51, 263 54.75 M263 18.25 C263.5 31.2, 262.26 44.01, 263 54.75 M263 54.75 C262.56 65.15, 256.75 71.22, 244.75 73 M263 54.75 C261.29 65.58, 255.36 73.01, 244.75 73 M244.75 73 C157.33 74.37, 69.32 73.21, 18.25 73 M244.75 73 C158.73 72.66, 71.99 72.64, 18.25 73 M18.25 73 C4.53 72.66, 0.6 66.96, 0 54.75 M18.25 73 C6.26 71.11, 0.47 66.23, 0 54.75 M0 54.75 C-1.62 44.84, 0.63 35.03, 0 18.25 M0 54.75 C0.77 42.67, 1.17 28.09, 0 18.25 M0 18.25 C0.95 4.67, 4.4 -0.3, 18.25 0 M0 18.25 C-1.08 4.62, 4.72 -1.91, 18.25 0" stroke="#1971c2" stroke-width="2" fill="none"></path></g><g transform="translate(376.3666648864746 311) rotate(0 59.38333511352539 12.5)"><text x="59.38333511352539" y="0" font-family="Virgil, Segoe UI Emoji" font-size="20px" fill="#1971c2" text-anchor="middle" style="white-space: pre;" direction="ltr" dominant-baseline="text-before-edge">Is disabled?</text></g><g mask="url(#mask-APvGYX4mrjGXy28HLtv75)" stroke-linecap="round"><g transform="translate(571.75 325.2587053125335) rotate(0 68.37103604860602 1.5562168822756348)"><path d="M-0.8 1.14 C22.31 1.34, 114.44 0.89, 137.54 0.95 M0.98 0.7 C23.99 1.11, 113.69 2.62, 136.36 2.39" stroke="#1971c2" stroke-width="2" fill="none"></path></g><g transform="translate(571.75 325.2587053125335) rotate(0 68.37103604860602 1.5562168822756348)"><path d="M110.02 11.74 C113.69 10.31, 120.42 9.91, 134.47 2.11 M107.7 12.4 C116.33 9.8, 126.78 5.13, 136.37 2.26" stroke="#1971c2" stroke-width="2" fill="none"></path></g><g transform="translate(571.75 325.2587053125335) rotate(0 68.37103604860602 1.5562168822756348)"><path d="M110.13 -8.78 C113.74 -5.95, 120.44 -2.09, 134.47 2.11 M107.81 -8.13 C116.26 -4.2, 126.67 -2.35, 136.37 2.26" stroke="#1971c2" stroke-width="2" fill="none"></path></g></g><mask id="mask-APvGYX4mrjGXy28HLtv75"><rect x="0" y="0" fill="#fff" width="809.7499999999999" height="426.38777113306173"></rect><rect x="624.6833324432373" y="313.3232382227976" fill="#000" width="32.13333511352539" height="25" opacity="1"></rect></mask><g transform="translate(624.6833324432373 313.3232382227976) rotate(0 15.43770360536871 13.491683972011515)"><text x="16.066667556762695" y="0" font-family="Virgil, Segoe UI Emoji" font-size="20px" fill="#1971c2" text-anchor="middle" style="white-space: pre;" direction="ltr" dominant-baseline="text-before-edge">Yes</text></g><g stroke-linecap="round" transform="translate(711.75 283.5) rotate(0 186 42.5)"><path d="M21.25 0 M21.25 0 C107.95 1.29, 192.59 0.13, 350.75 0 M21.25 0 C125.68 -0.28, 230.1 0.16, 350.75 0 M350.75 0 C366.21 -1.84, 372.02 6.82, 372 21.25 M350.75 0 C362.62 1.78, 372.75 8.06, 372 21.25 M372 21.25 C373.09 32.46, 373.72 46.14, 372 63.75 M372 21.25 C371.22 29.67, 371.29 39.24, 372 63.75 M372 63.75 C373.79 76.5, 365.43 85.89, 350.75 85 M372 63.75 C373.17 79.17, 364.53 86.88, 350.75 85 M350.75 85 C226.06 86.56, 101.49 85.16, 21.25 85 M350.75 85 C257.6 84.49, 164.49 84.85, 21.25 85 M21.25 85 C6.41 84.78, 0.13 76.25, 0 63.75 M21.25 85 C6.87 85.67, -0.3 79.25, 0 63.75 M0 63.75 C1.9 56.56, -1.12 46.98, 0 21.25 M0 63.75 C-0.11 53.36, -0.24 43.41, 0 21.25 M0 21.25 C-1.97 8.88, 5.69 1.42, 21.25 0 M0 21.25 C-1.84 8.25, 6.9 0.34, 21.25 0" stroke="#1971c2" stroke-width="2" fill="none"></path></g><g transform="translate(725.7166595458984 313.5) rotate(0 172.03334045410156 12.5)"><text x="172.03334045410156" y="0" font-family="Virgil, Segoe UI Emoji" font-size="20px" fill="#1971c2" text-anchor="middle" style="white-space: pre;" direction="ltr" dominant-baseline="text-before-edge">Reads the "dimmed/disabled" state</text></g><g stroke-linecap="round" transform="translate(306.25 540) rotate(0 131.5 36.5)"><path d="M18.25 0 M18.25 0 C104.15 1.59, 189.51 1.09, 244.75 0 M18.25 0 C65.45 0.19, 112.18 0.82, 244.75 0 M244.75 0 C258.11 -0.38, 264.45 4.58, 263 18.25 M244.75 0 C256.35 -0.53, 261.56 4.62, 263 18.25 M263 18.25 C264.09 28.17, 262.77 36.42, 263 54.75 M263 18.25 C263.04 25.12, 262.71 33.66, 263 54.75 M263 54.75 C263.94 66.62, 257.56 73.95, 244.75 73 M263 54.75 C262.42 67.77, 258.86 73.49, 244.75 73 M244.75 73 C157.33 73.28, 68.09 74.16, 18.25 73 M244.75 73 C168.91 75.6, 93.17 74.13, 18.25 73 M18.25 73 C6.05 71.1, -0.69 65.22, 0 54.75 M18.25 73 C4.17 71.82, 0.13 68.93, 0 54.75 M0 54.75 C0.46 47.07, 0.65 40.01, 0 18.25 M0 54.75 C-0.16 45.45, -0.51 38.63, 0 18.25 M0 18.25 C-0.07 4.47, 7.66 -1.44, 18.25 0 M0 18.25 C-0.77 7.23, 5.13 0.59, 18.25 0" stroke="#1971c2" stroke-width="2" fill="none"></path></g><g transform="translate(396.31666564941406 564) rotate(0 41.43333435058594 12.5)"><text x="41.43333435058594" y="0" font-family="Virgil, Segoe UI Emoji" font-size="20px" fill="#1971c2" text-anchor="middle" style="white-space: pre;" direction="ltr" dominant-baseline="text-before-edge">Is busy?</text></g><g mask="url(#mask-3iGeqykudT_rIruQqSPKG)" stroke-linecap="round"><g transform="translate(573.75 578.2587053125335) rotate(0 69.21891878167162 0.5545722181024644)"><path d="M0.58 -1.1 C23.24 -0.99, 113.98 0.53, 136.88 0.83 M-0.57 0.94 C22.36 1.21, 116.04 2.06, 139.01 2.21" stroke="#1971c2" stroke-width="2" fill="none"></path></g><g transform="translate(573.75 578.2587053125335) rotate(0 69.21891878167162 0.5545722181024644)"><path d="M108.9 10.38 C120.92 8.33, 131.44 3.47, 139.8 3.4 M110.49 12.01 C117.98 9, 125.91 5.99, 139.86 2.91" stroke="#1971c2" stroke-width="2" fill="none"></path></g><g transform="translate(573.75 578.2587053125335) rotate(0 69.21891878167162 0.5545722181024644)"><path d="M109.07 -10.14 C121.05 -4.43, 131.5 -1.52, 139.8 3.4 M110.65 -8.51 C118.25 -5.75, 126.13 -3, 139.86 2.91" stroke="#1971c2" stroke-width="2" fill="none"></path></g></g><mask id="mask-3iGeqykudT_rIruQqSPKG"><rect x="0" y="0" fill="#fff" width="811.7499999999999" height="679.3877711330617"></rect><rect x="626.6833324432373" y="566.3232382227975" fill="#000" width="32.13333511352539" height="25" opacity="1"></rect></mask><g transform="translate(626.6833324432373 566.3232382227976) rotate(0 16.285586338434314 12.490039307838344)"><text x="16.066667556762695" y="0" font-family="Virgil, Segoe UI Emoji" font-size="20px" fill="#1971c2" text-anchor="middle" style="white-space: pre;" direction="ltr" dominant-baseline="text-before-edge">Yes</text></g><g stroke-linecap="round" transform="translate(713.75 536.5) rotate(0 186 42.5)"><path d="M21.25 0 M21.25 0 C88.92 -0.74, 158.06 0.79, 350.75 0 M21.25 0 C113.68 1.54, 206.02 1.26, 350.75 0 M350.75 0 C363.64 -1.66, 373.72 8.48, 372 21.25 M350.75 0 C366.41 0.08, 373.06 4.98, 372 21.25 M372 21.25 C370.43 30.65, 372.28 40.99, 372 63.75 M372 21.25 C371.88 33.75, 372.98 45.72, 372 63.75 M372 63.75 C373.78 78.35, 366.13 85.76, 350.75 85 M372 63.75 C370.79 77.2, 364.9 85.78, 350.75 85 M350.75 85 C221.62 83.92, 88.98 84.41, 21.25 85 M350.75 85 C282.56 82.73, 215.54 83.68, 21.25 85 M21.25 85 C5.33 83.17, -0.56 78.04, 0 63.75 M21.25 85 C7.18 85.36, 0.89 76.4, 0 63.75 M0 63.75 C-1.26 51.87, 2.17 42.77, 0 21.25 M0 63.75 C-0.67 54.93, -0.75 45.37, 0 21.25 M0 21.25 C-0.17 5.79, 8.4 0.32, 21.25 0 M0 21.25 C-0.55 6.76, 5.6 1.51, 21.25 0" stroke="#1971c2" stroke-width="2" fill="none"></path></g><g transform="translate(782.3499984741211 566.5) rotate(0 117.4000015258789 12.5)"><text x="117.4000015258789" y="0" font-family="Virgil, Segoe UI Emoji" font-size="20px" fill="#1971c2" text-anchor="middle" style="white-space: pre;" direction="ltr" dominant-baseline="text-before-edge">Reads the "busy" state</text></g><g stroke-linecap="round" transform="translate(308.69444444444434 412.8888888888889) rotate(0 131.5 36.5)"><path d="M18.25 0 M18.25 0 C99.29 2.47, 179.06 2.27, 244.75 0 M18.25 0 C81.54 -0.25, 143.1 -0.41, 244.75 0 M244.75 0 C256.03 1.15, 261.32 6.94, 263 18.25 M244.75 0 C258.18 0.29, 263.39 6.64, 263 18.25 M263 18.25 C262 27.77, 261.76 31.97, 263 54.75 M263 18.25 C264.26 31.74, 264 44.12, 263 54.75 M263 54.75 C262.86 68.49, 258.68 71.37, 244.75 73 M263 54.75 C261.41 68.69, 258.79 70.99, 244.75 73 M244.75 73 C173.99 71.48, 105.95 72.2, 18.25 73 M244.75 73 C175.36 73.01, 106.67 72.77, 18.25 73 M18.25 73 C5.07 73.95, -0.15 67.97, 0 54.75 M18.25 73 C5.57 73.56, -1.61 67.42, 0 54.75 M0 54.75 C1.76 46.19, 0.34 38.79, 0 18.25 M0 54.75 C0.1 41.29, 1.03 29.08, 0 18.25 M0 18.25 C1.28 7.76, 4.88 1.49, 18.25 0 M0 18.25 C2.15 4.36, 7.54 -2.27, 18.25 0" stroke="#1971c2" stroke-width="2" fill="none"></path></g><g transform="translate(384.6444452073838 436.88888888888897) rotate(0 55.54999923706055 12.499999999999972)"><text x="55.54999923706055" y="0" font-family="Virgil, Segoe UI Emoji" font-size="20px" fill="#1971c2" text-anchor="middle" style="white-space: pre;" direction="ltr" dominant-baseline="text-before-edge">Is toggled?</text></g><g mask="url(#mask-se6Edmn5dNQLaJWDBOBJ_)" stroke-linecap="round"><g transform="translate(576.1944444444443 450.7486947735433) rotate(0 69.49398926608262 -0.06168592348808488)"><path d="M0.79 -0.29 C23.47 -0.09, 113.99 1.04, 137.04 1.38 M-0.26 -1.48 C22.71 -1.67, 116.06 -0.67, 139.25 -0.45" stroke="#1971c2" stroke-width="2" fill="none"></path></g><g transform="translate(576.1944444444443 450.7486947735433) rotate(0 69.49398926608262 -0.06168592348808488)"><path d="M110.48 7.93 C122.54 7.35, 133.82 1.28, 140.42 -1.33 M111.51 9.66 C121.33 6.09, 130.39 1.49, 139.59 -0.81" stroke="#1971c2" stroke-width="2" fill="none"></path></g><g transform="translate(576.1944444444443 450.7486947735433) rotate(0 69.49398926608262 -0.06168592348808488)"><path d="M110.68 -12.59 C122.71 -5.43, 133.91 -3.76, 140.42 -1.33 M111.71 -10.86 C121.29 -7.09, 130.28 -4.35, 139.59 -0.81" stroke="#1971c2" stroke-width="2" fill="none"></path></g></g><mask id="mask-se6Edmn5dNQLaJWDBOBJ_"><rect x="0" y="0" fill="#fff" width="814.1944444444443" height="551.5685540425493"></rect><rect x="629.1277768876816" y="438.6586244080463" fill="#000" width="32.13333511352539" height="25" opacity="1"></rect></mask><g transform="translate(629.1277768876816 438.6586244080463) rotate(0 16.560656822845317 12.028384442008928)"><text x="16.066667556762695" y="0" font-family="Virgil, Segoe UI Emoji" font-size="20px" fill="#1971c2" text-anchor="middle" style="white-space: pre;" direction="ltr" dominant-baseline="text-before-edge">Yes</text></g><g stroke-linecap="round" transform="translate(716.1944444444443 408.27777777777777) rotate(0 186 42.50000000000003)"><path d="M21.25 0 M21.25 0 C94.78 -2.35, 167.01 -2.59, 350.75 0 M21.25 0 C139.48 -0.88, 257.07 -0.8, 350.75 0 M350.75 0 C363.15 -1.56, 372.69 6.36, 372 21.25 M350.75 0 C366.99 -1.1, 370.02 8.43, 372 21.25 M372 21.25 C372.62 39.31, 371.19 54.59, 372 63.75 M372 21.25 C371.68 38.12, 373.19 52.56, 372 63.75 M372 63.75 C372.17 77.46, 363.03 83.95, 350.75 85 M372 63.75 C372.41 79.16, 366.29 85.13, 350.75 85 M350.75 85 C270.98 85.21, 191.45 83.9, 21.25 85 M350.75 85 C236.16 86.35, 121.4 86.34, 21.25 85 M21.25 85 C5.53 85.22, -0.1 79.71, 0 63.75 M21.25 85 C6.58 85.44, 0.32 79.02, 0 63.75 M0 63.75 C-1.7 53.82, -0.71 41.39, 0 21.25 M0 63.75 C1.19 46.69, 0.89 30.14, 0 21.25 M0 21.25 C1.45 6.76, 8.18 -0.08, 21.25 0 M0 21.25 C-0.61 7.83, 8.09 -0.32, 21.25 0" stroke="#1971c2" stroke-width="2" fill="none"></path></g><g transform="translate(730.9944474962022 438.2777777777778) rotate(0 171.1999969482422 12.5)"><text x="171.1999969482422" y="0" font-family="Virgil, Segoe UI Emoji" font-size="20px" fill="#1971c2" text-anchor="middle" style="white-space: pre;" direction="ltr" dominant-baseline="text-before-edge">Reads the "selected/ticked" state</text></g><g stroke-linecap="round"><g transform="translate(434.3333333333336 360.4444444444445) rotate(0 -0.08234874749143728 26.216943174871744)"><path d="M-0.8 0.24 C-1.01 8.97, -0.39 43.1, -0.51 51.8 M0.98 -0.68 C0.6 8.27, -0.56 44.02, -1.15 53.12" stroke="#1971c2" stroke-width="2" fill="none"></path></g><g transform="translate(434.3333333333336 360.4444444444445) rotate(0 -0.08234874749143728 26.216943174871744)"><path d="M-8.54 29.18 C-6.92 36.59, -2.99 47.42, -0.87 53.99 M-9.69 27.57 C-5.63 38.92, -3.2 48.23, -0.57 53.43" stroke="#1971c2" stroke-width="2" fill="none"></path></g><g transform="translate(434.3333333333336 360.4444444444445) rotate(0 -0.08234874749143728 26.216943174871744)"><path d="M9.31 30.01 C4.42 37, 1.85 47.53, -0.87 53.99 M8.16 28.4 C5.14 39.34, 0.49 48.32, -0.57 53.43" stroke="#1971c2" stroke-width="2" fill="none"></path></g></g><mask></mask><g stroke-linecap="round"><g transform="translate(437.66666666666697 482.66666666666674) rotate(0 0.5446892020625569 26.905004622547153)"><path d="M-0.41 -0.29 C-0.18 8.87, 0.26 44.69, 0.29 53.99 M1.58 -1.48 C1.76 7.92, -0.05 46.09, -0.5 55.29" stroke="#1971c2" stroke-width="2" fill="none"></path></g><g transform="translate(437.66666666666697 482.66666666666674) rotate(0 0.5446892020625569 26.905004622547153)"><path d="M-9.08 29.8 C-7.85 34.47, -3.6 40.7, 1.1 55.72 M-7.97 29.23 C-6.99 34.18, -6.3 39.03, -0.1 56.07" stroke="#1971c2" stroke-width="2" fill="none"></path></g><g transform="translate(437.66666666666697 482.66666666666674) rotate(0 0.5446892020625569 26.905004622547153)"><path d="M9.52 30.67 C6.82 35.1, 7.13 41.14, 1.1 55.72 M10.63 30.1 C7.86 34.86, 4.79 39.54, -0.1 56.07" stroke="#1971c2" stroke-width="2" fill="none"></path></g></g><mask></mask></svg>